<?xml version="1.0" encoding="UTF-8"?><svg id="Layer_1" xmlns="http://www.w3.org/2000/svg" xmlns:xlink="http://www.w3.org/1999/xlink" viewBox="0 0 1920 1080"><defs><style>.cls-1{fill:#6d6a6a;filter:url(#drop-shadow-3);}.cls-1,.cls-2,.cls-3,.cls-4,.cls-5,.cls-6{stroke-width:0px;}.cls-2{fill:#cac9cd;filter:url(#drop-shadow-1);}.cls-3{fill:#9b9a9c;filter:url(#drop-shadow-2);}.cls-4{fill:#100c07;filter:url(#drop-shadow-5);}.cls-5{fill:#f8f8ff;}.cls-6{fill:#3e3b39;filter:url(#drop-shadow-4);}</style><filter id="drop-shadow-1" filterUnits="userSpaceOnUse"><feOffset dx="16" dy="7"/><feGaussianBlur result="blur" stdDeviation="6"/><feFlood flood-color="#000" flood-opacity=".75"/><feComposite in2="blur" operator="in"/><feComposite in="SourceGraphic"/></filter><filter id="drop-shadow-2" filterUnits="userSpaceOnUse"><feOffset dx="16" dy="7"/><feGaussianBlur result="blur-2" stdDeviation="6"/><feFlood flood-color="#000" flood-opacity=".75"/><feComposite in2="blur-2" operator="in"/><feComposite in="SourceGraphic"/></filter><filter id="drop-shadow-3" filterUnits="userSpaceOnUse"><feOffset dx="16" dy="7"/><feGaussianBlur result="blur-3" stdDeviation="6"/><feFlood flood-color="#000" flood-opacity=".75"/><feComposite in2="blur-3" operator="in"/><feComposite in="SourceGraphic"/></filter><filter id="drop-shadow-4" filterUnits="userSpaceOnUse"><feOffset dx="16" dy="7"/><feGaussianBlur result="blur-4" stdDeviation="6"/><feFlood flood-color="#000" flood-opacity=".75"/><feComposite in2="blur-4" operator="in"/><feComposite in="SourceGraphic"/></filter><filter id="drop-shadow-5" filterUnits="userSpaceOnUse"><feOffset dx="16" dy="7"/><feGaussianBlur result="blur-5" stdDeviation="6"/><feFlood flood-color="#000" flood-opacity=".75"/><feComposite in2="blur-5" operator="in"/><feComposite in="SourceGraphic"/></filter></defs><path class="cls-5" d="m1399.39,502.19c-34.77-14.44-73.83,1.96-111.4,4.47-57.8,3.86-112.6-25.72-170.25-31.37-34.64-3.4-69.78,1.92-104.32-2.43-39.9-5.03-77.34-22.76-117.23-27.89-24.33-3.13-48.98-1.49-73.51-1.6-46.8-.22-93.27-6.86-139.23-15.17-31.82-5.75-76.95-19.14-89.01,24.85-1.76,6.41-2.23,13.24-5.11,19.22-11.77,24.42-55.54,22.33-61.72,48.72-2.4,10.26,2.86,21.27,11.14,27.77,8.28,6.51,19.06,9.09,29.58,9.59,56.71,2.72,103.17-48.13,159.58-54.55,57.81-6.58,114.12,34.72,171.38,24.35,17.9-3.24,34.69-11.44,52.72-13.92,26.43-3.63,52.75,5.29,78.23,13.18,98.26,30.45,200.14,47.26,301.64,63.98,7.85,1.29,16.1,2.56,23.6-.11,6.16-2.19,11.12-6.8,15.64-11.52,14.86-15.53,27.04-33.6,35.86-53.2,2.49-5.53,4.67-12.13,1.7-17.41-1.93-3.44-5.64-5.46-9.29-6.97Z"/><path class="cls-2" d="m1469.59,488.72c2.26-8.89,6.38-17.86,4.56-26.86-3.59-17.69-25.98-22.87-43.96-24.38-13.54-1.13-27.39-2.24-40.53,1.21-20.56,5.4-37.07,21.34-57.56,26.98-26.4,7.26-53.94-3.65-79.69-12.97-29.31-10.6-59.29-19.35-89.71-26.16-26.49-5.93-54.07-10.39-80.68-5.01-15.69,3.17-30.51,9.67-46.02,13.62-30.76,7.83-63.34,5.37-94.35-1.41-77.95-17.04-154.09-61.06-232.45-46.02-22.78,4.37-46.28,14.15-69.72,8.54-18.42-4.41-34.44-21.9-53.91-21.53-16.06.31-27.65,15.14-34.32,28.36-8.04,15.92-2.97,39.76-16.17,52.72-5.15,5.05-12.39,7.17-19.06,9.91-24.64,10.14-44.38,31.54-52.51,56.92-3.49,10.9-4.88,22.9-1.19,33.75,8.51,25.03,38.77,33.95,64.83,38.39,51.57,8.77,106.79,13.62,154.24-8.39,19.85-9.21,37.74-22.9,58.75-29.02,39.07-11.38,80.19,5.31,117.66,21.18,20.48,8.67,44.58,17.07,64.01,6.25,9.12-5.08,15.69-13.75,24.3-19.65,25.53-17.48,59.93-6.54,89.12,3.7,106.72,37.41,218.54,57.92,330.24,75.56,35.45,5.6,78.73,7.89,99.74-21.2,26.85-37.18-6.96-90.06,4.36-134.51Zm-62.61,37.85c-8.82,19.6-21,37.67-35.86,53.2-4.52,4.72-9.48,9.33-15.64,11.52-7.5,2.66-15.75,1.4-23.6.11-101.5-16.72-203.38-33.53-301.64-63.98-25.48-7.89-51.8-16.81-78.23-13.18-18.03,2.47-34.82,10.68-52.72,13.92-57.26,10.37-113.56-30.93-171.38-24.35-56.41,6.42-102.87,57.26-159.58,54.55-10.52-.5-21.29-3.08-29.58-9.59-8.28-6.51-13.54-17.52-11.14-27.77,6.17-26.39,49.95-24.31,61.72-48.72,2.89-5.99,3.36-12.81,5.11-19.22,12.06-44,57.19-30.61,89.01-24.85,45.96,8.31,92.43,14.96,139.23,15.17,24.53.11,49.18-1.53,73.51,1.6,39.88,5.12,77.33,22.86,117.23,27.89,34.54,4.36,69.67-.96,104.32,2.43,57.66,5.65,112.45,35.23,170.25,31.37,37.56-2.51,76.63-18.91,111.4-4.47,3.64,1.51,7.35,3.53,9.29,6.97,2.97,5.28.79,11.89-1.7,17.41Z"/><path class="cls-3" d="m1517.02,481.46c-2.57-22,5.76-44.99-1.06-66.06-11.75-36.33-60.7-45.11-97.45-34.74-36.74,10.37-70.09,33.12-108.11,36.64-71.54,6.62-133.25-55.78-205.01-59.18-64.32-3.04-125.08,41.97-188.86,33.13-51.69-7.17-93.49-48.45-144.98-56.95-51.35-8.47-104.19,17.01-155.18,6.62-20.89-4.25-40.35-14.38-61.44-17.46-18.88-2.75-39.79,1.05-53.13,14.68-7.82,7.98-11.52,19.18-11.06,30.23.37,8.77,4.93,15.24-.64,22.92-5.25,7.25-19.16,12.08-26.15,18.44-8.34,7.59-15.33,16.6-19.02,27.36-2.82,8.23-3.61,17.09-6.82,25.18-5.34,13.46-16.71,23.38-26.47,34.07-19.26,21.11-33.5,47.99-34.44,76.55-.94,28.56,13.4,58.43,38.99,71.14,29.76,14.78,65.19,4.22,98.42,4.91,51.03,1.05,99.53,29.39,150.39,25.09,62.16-5.26,116.78-58.51,178.41-48.91,41.4,6.45,80.52,40.98,120.19,27.5,11.88-4.04,21.94-12.07,33.18-17.65,36.63-18.19,81.14-8.32,118.17,9.03,37.03,17.35,70.94,41.8,110.01,53.89,30.13,9.32,62.13,10.87,93.66,10.17,71.26-1.59,141.74-14.28,211.89-26.93,10.63-1.92,22-4.21,29.53-11.96,6.63-6.82,9.03-16.65,10.22-26.09,3.53-28.08-1.54-57.18-14.35-82.42-13.43-26.44-35.45-49.78-38.89-79.23Zm-51.78,141.77c-21.01,29.09-64.3,26.8-99.74,21.2-111.7-17.64-223.52-38.16-330.24-75.56-29.2-10.23-63.6-21.18-89.12-3.7-8.61,5.9-15.18,14.57-24.3,19.65-19.43,10.82-43.53,2.43-64.01-6.25-37.47-15.87-78.59-32.55-117.66-21.18-21.01,6.12-38.9,19.81-58.75,29.02-47.45,22.01-102.67,17.16-154.24,8.39-26.06-4.43-56.32-13.36-64.83-38.39-3.69-10.84-2.3-22.84,1.19-33.75,8.13-25.38,27.87-46.78,52.51-56.92,6.67-2.75,13.91-4.86,19.06-9.91,13.2-12.97,8.13-36.8,16.17-52.72,6.68-13.22,18.26-28.05,34.32-28.36,19.48-.38,35.5,17.12,53.91,21.53,23.44,5.61,46.94-4.17,69.72-8.54,78.37-15.04,154.5,28.98,232.45,46.02,31.01,6.78,63.59,9.24,94.35,1.41,15.51-3.95,30.33-10.45,46.02-13.62,26.61-5.38,54.18-.92,80.68,5.01,30.42,6.81,60.4,15.55,89.71,26.16,25.75,9.32,53.29,20.23,79.69,12.97,20.49-5.64,37-21.58,57.56-26.98,13.14-3.45,26.99-2.34,40.53-1.21,17.99,1.51,40.37,6.69,43.96,24.38,1.83,8.99-2.29,17.96-4.56,26.86-11.32,44.45,22.5,97.33-4.36,134.51Z"/><path class="cls-1" d="m1714.99,556.34c-37.77-44.02-104.99-58.82-133.18-109.52-24.02-43.19-16.44-106.96-58.89-132.26-13.82-8.24-30.44-10.2-46.52-10.64-31.87-.87-63.87,3.57-94.3,13.07-41.73,13.04-82.28,35.8-125.91,33.08-41.94-2.62-78.39-28.33-117.87-42.7-47.55-17.31-101.02-17.84-148.91-1.47-13.5,4.61-26.95,10.6-41.22,10.68-16.6.1-32.05-7.77-46.92-15.13-38.54-19.07-79.37-36.23-122.34-37.43-66.3-1.86-131.91,34.39-196.64,19.98-33.05-7.36-63.57-27.68-97.41-26.72-6.42.18-13.27,1.35-17.92,5.79-8.93,8.52-4.58,19.94.91,32.19,4.35,9.7,1.16,21.16-7.58,27.21-16.98,11.76-31.45,26.08-37.82,45.36-2.35,7.11-3.55,14.81-7.85,20.95-7.31,10.43-21.35,13.44-31.27,21.44-12.3,9.91-16.98,26.27-20.99,41.55-17.28,65.91-34.71,133.37-29.08,201.27,1.02,12.34,3.14,25.37,11.25,34.73,6.82,7.86,16.89,11.96,26.57,15.8,20.24,8.01,40.79,16.11,62.43,18.53,33.17,3.72,66.43-6.13,99.81-5.58,57.41.93,110.48,32.25,167.7,37.03,93.12,7.77,182.54-55.27,275.09-42.44,43.85,6.09,83.46,28.74,125.72,41.93,111.99,34.97,234.04,1.76,350.06,19.17,23.75,3.56,48.62,9.15,71.2,1,20.43-7.37,35.29-24.71,52.35-38.14,47.05-37.06,115.98-48.22,147.33-99.25,7.2-11.73,11.92-25.39,10.94-39.11-1.09-15.05-8.91-28.91-18.73-40.36Zm-144.73,86.77c-1.19,9.44-3.59,19.27-10.22,26.09-7.53,7.74-18.9,10.04-29.53,11.96-70.14,12.65-140.63,25.34-211.89,26.93-31.54.7-63.53-.85-93.66-10.17-39.07-12.09-72.98-36.54-110.01-53.89-37.03-17.35-81.54-27.21-118.17-9.03-11.24,5.58-21.3,13.61-33.18,17.65-39.67,13.48-78.79-21.05-120.19-27.5-61.63-9.6-116.25,43.65-178.41,48.91-50.86,4.3-99.36-24.03-150.39-25.09-33.23-.69-68.66,9.87-98.42-4.91-25.59-12.71-39.93-42.58-38.99-71.14.94-28.56,15.18-55.44,34.44-76.55,9.76-10.69,21.13-20.62,26.47-34.07,3.21-8.09,3.99-16.95,6.82-25.18,3.69-10.76,10.68-19.78,19.02-27.36,6.99-6.36,20.9-11.18,26.15-18.44,5.56-7.68,1-14.16.64-22.92-.46-11.05,3.24-22.25,11.06-30.23,13.35-13.63,34.26-17.43,53.13-14.68,21.09,3.07,40.55,13.2,61.44,17.46,50.99,10.39,103.84-15.1,155.18-6.62,51.49,8.5,93.29,49.78,144.98,56.95,63.78,8.84,124.54-36.17,188.86-33.13,71.76,3.39,133.47,65.8,205.01,59.18,38.02-3.52,71.36-26.27,108.11-36.64,36.74-10.37,85.69-1.59,97.45,34.74,6.82,21.07-1.51,44.06,1.06,66.06,3.44,29.45,25.47,52.79,38.89,79.23,12.81,25.23,17.88,54.34,14.35,82.42Z"/><path class="cls-6" d="m1760.56,512.07c-25.98-31.61-63.71-50.66-96.94-74.52-33.23-23.85-64.54-57.34-66.22-98.21-.94-23.12,7.79-45.36,14.26-67.58,1.56-5.37,2.98-11.25.89-16.44-2.15-5.33-7.48-8.61-12.64-11.15-46.53-22.92-102.47-14.64-151.47,2.38-49,17.02-95.36,42.25-146.11,52.98-50.74,10.73-109.65,3.79-144.45-34.68-11.47-12.68-20.07-28.44-34.46-37.67-33.42-21.46-75.95,1.95-113.96,13.43-37.52,11.34-78.7,10.17-115.51-3.27-32.78-11.97-63.61-33.61-98.49-32.78-41.35.99-75.43,33.31-115.85,42.09-51.21,11.13-104.27-16.81-155.79-15.16-2.61.08-5.14-.89-7-2.72-14.73-14.53-40.8-16.2-60.24-7-22.53,10.67-38.06,31.78-52.09,52.39-14.03,20.62-28.25,42.28-49.62,55.14-26.33,15.86-63.67,19.04-77.32,46.59-18.23,36.76,23.79,81.14,9.93,119.76-6.23,17.35-22.59,29.26-30.2,46.05-13.81,30.41,4.49,65.06,6.31,98.41,1.75,32.06-12.09,63.99-7.1,95.71,9.18,58.26,81.24,89.27,138.28,74.24,21.12-5.57,40.88-15.72,62.21-20.4,56.26-12.33,112.65,14.56,165.94,36.42,53.3,21.85,116.9,38.48,166.06,8.47,27.49-16.77,46.15-46.1,75.05-60.32,31.52-15.51,68.84-10.17,103.51-4.48,32.64,5.37,66.19,11.05,94.5,28.17,17.78,10.75,32.72,25.58,49.7,37.58,47.3,33.42,110.7,42.82,165.66,24.54,20.64-6.86,40.06-17.35,61.21-22.42,46.55-11.16,94.63,4.97,141.76,13.32,47.14,8.35,102.98,5.69,132.96-31.63,15.54-19.34,21.86-45.7,40.57-62,22.4-19.51,55.19-18.86,84.78-21.42,29.6-2.56,63.88-13.86,72.09-42.41,3.35-11.64,1.53-24.06-.31-36.03-7.89-51.29-16.95-105.29-49.9-145.38Zm-37.78,123.74c-31.35,51.03-100.28,62.19-147.33,99.25-17.06,13.43-31.92,30.77-52.35,38.14-22.58,8.15-47.45,2.56-71.2-1-116.02-17.41-238.07,15.8-350.06-19.17-42.26-13.19-81.87-35.84-125.72-41.93-92.55-12.83-181.97,50.21-275.09,42.44-57.22-4.78-110.29-36.1-167.7-37.03-33.38-.55-66.64,9.3-99.81,5.58-21.64-2.42-42.19-10.52-62.43-18.53-9.68-3.84-19.75-7.94-26.57-15.8-8.11-9.36-10.23-22.39-11.25-34.73-5.63-67.9,11.8-135.36,29.08-201.27,4.01-15.28,8.69-31.64,20.99-41.55,9.92-8,23.96-11.01,31.27-21.44,4.3-6.14,5.5-13.84,7.85-20.95,6.37-19.28,20.84-33.6,37.82-45.36,8.74-6.05,11.93-17.51,7.58-27.21-5.49-12.25-9.83-23.67-.91-32.19,4.65-4.44,11.5-5.61,17.92-5.79,33.84-.96,64.36,19.36,97.41,26.72,64.73,14.41,130.34-21.84,196.64-19.98,42.97,1.2,83.8,18.36,122.34,37.43,14.87,7.36,30.32,15.23,46.92,15.13,14.27-.08,27.72-6.07,41.22-10.68,47.89-16.37,101.36-15.84,148.91,1.47,39.48,14.37,75.93,40.08,117.87,42.7,43.63,2.72,84.18-20.04,125.91-33.08,30.43-9.5,62.43-13.94,94.3-13.07,16.08.44,32.7,2.4,46.52,10.64,42.45,25.3,34.87,89.07,58.89,132.26,28.19,50.7,95.41,65.5,133.18,109.52,9.82,11.45,17.64,25.31,18.73,40.36.98,13.72-3.74,27.38-10.94,39.11Z"/><path class="cls-4" d="m1846.72,508.82c-9.49-44.76-24.96-94.45-65.88-114.92-19.86-9.93-42.78-11.2-64.27-16.83-21.48-5.63-43.81-18.11-49.88-39.47-8.31-29.29,17.48-57.56,18.9-87.98,1.97-42.24-42.7-71.95-84.2-80.03-91.02-17.73-181.59,23.53-269.45,53.16-20.23,6.82-41.32,13.14-62.58,11.16-21.26-1.98-42.91-14.15-50-34.29-4.88-13.85-2.38-29.38-6.65-43.43-9.73-31.99-51.14-43.94-83.48-35.44-32.34,8.5-58.79,30.99-87.33,48.41-28.54,17.42-64.19,30.16-94.96,17.06-41.37-17.61-55.57-73.64-96.82-91.52-43.94-19.05-91.69,14.17-128.08,45.3-36.39,31.13-84.32,64.22-128.14,44.91-50.41-22.21-62.46-102.51-116.91-110.87-45.09-6.93-77.41,42.29-91.58,85.66-14.16,43.37-28.9,95.15-71.97,110.19-37.31,13.02-82.18-8.44-116.61,10.98-26.94,15.19-36.26,51.28-29.22,81.39,4.49,19.19,14.5,34.22,24.95,49.37,7.04,10.21,1.38,24.24-10.74,26.84-7.16,1.54-14.27,3.73-21.3,8.51-13.55,9.22-24.37,22.86-29.65,38.43-11.34,33.42-.93,71.16,18.89,100.37,17.45,25.72,43.2,50.58,40.55,81.54-2.99,35-40.86,56.54-53.11,89.46-18.92,50.83,29.02,101.49,76.43,127.84,32.94,18.3,68.7,32.77,106.23,36.22,56.03,5.16,110.93-14.33,165.86-26.54,54.92-12.21,116.95-15.92,163.03,16.36,16.49,11.55,29.83,27.03,45.6,39.55,64.16,50.92,168.43,39.99,220.63-23.14,11.48-13.89,21.01-30.11,36.28-39.68,34.98-21.91,81.2,1.19,110.25,30.5,29.05,29.32,53.54,66.6,92.44,80.39,36.05,12.78,76.37,1.91,110.55-15.24,34.18-17.16,65.23-40.49,100.7-54.8,46.75-18.87,100.12-20.86,148.15-5.53,41.4,13.21,84.14,39.05,125.16,24.7,46.86-16.39,61.47-74.08,70.78-122.85,1.61-8.42,3.5-17.31,9.4-23.53,18.06-19.03,48.19,2.98,74.14,6.86,28.29,4.23,55.66-16.64,67.74-42.56s12.09-55.7,10.47-84.25c-3.27-57.95-12.26-115.48-24.3-172.26Zm-35.95,184.66c-8.21,28.55-42.49,39.85-72.09,42.41-29.59,2.56-62.38,1.91-84.78,21.42-18.71,16.3-25.03,42.66-40.57,62-29.98,37.32-85.82,39.98-132.96,31.63-47.13-8.35-95.21-24.48-141.76-13.32-21.15,5.07-40.57,15.56-61.21,22.42-54.96,18.28-118.36,8.88-165.66-24.54-16.98-12-31.92-26.83-49.7-37.58-28.31-17.12-61.86-22.8-94.5-28.17-34.67-5.69-71.99-11.03-103.51,4.48-28.9,14.22-47.56,43.55-75.05,60.32-49.16,30.01-112.76,13.38-166.06-8.47-53.29-21.86-109.68-48.75-165.94-36.42-21.33,4.68-41.09,14.83-62.21,20.4-57.04,15.03-129.1-15.98-138.28-74.24-4.99-31.72,8.85-63.65,7.1-95.71-1.82-33.35-20.12-68-6.31-98.41,7.61-16.79,23.97-28.7,30.2-46.05,13.86-38.62-28.16-83-9.93-119.76,13.65-27.55,50.99-30.73,77.32-46.59,21.37-12.86,35.59-34.52,49.62-55.14,14.03-20.61,29.56-41.72,52.09-52.39,19.44-9.2,45.5-7.54,60.24,7,1.86,1.83,4.39,2.81,7,2.72,51.52-1.65,104.57,26.29,155.79,15.16,40.42-8.78,74.5-41.1,115.85-42.09,34.88-.83,65.71,20.81,98.49,32.78,36.81,13.44,77.99,14.61,115.51,3.27,38.01-11.48,80.54-34.89,113.96-13.43,14.39,9.23,22.99,24.99,34.46,37.67,34.8,38.47,93.71,45.41,144.45,34.68,50.75-10.73,97.11-35.96,146.11-52.98,49-17.02,104.94-25.3,151.47-2.38,5.16,2.54,10.49,5.82,12.64,11.15,2.09,5.19.67,11.07-.89,16.44-6.47,22.22-15.2,44.46-14.26,67.58,1.68,40.87,32.99,74.36,66.22,98.21,33.23,23.86,70.96,42.91,96.94,74.52,32.95,40.09,42.01,94.09,49.9,145.38,1.84,11.97,3.66,24.39.31,36.03Z"/></svg>